# Blender v2.78 (sub 0) OBJ File: ''
# www.blender.org
mtllib crate.mtl
o Cube_Cube.005
v 0.512089 -0.698541 -0.502991
v 0.512089 0.307441 -0.502991
v 0.009098 -0.698541 -0.502991
v 0.009098 0.307441 -0.502991
v 0.512089 -0.195550 -0.502991
v 0.512089 -0.698541 0.000000
v 0.512089 0.307441 -0.000000
v 0.009098 0.307441 -0.000000
v 0.009098 -0.698541 0.000000
v 0.512089 -0.195550 0.000000
v 0.009098 -0.195550 -0.502991
v -0.493894 -0.698541 -0.502991
v -0.493894 0.307441 -0.502991
v -0.493894 -0.698541 0.000000
v -0.493894 0.307441 -0.000000
v -0.493894 -0.195550 -0.502991
v 0.009098 -0.698541 -0.502991
v 0.009098 0.307441 -0.502991
v 0.009098 0.307441 -0.000000
v 0.009098 -0.698541 0.000000
v 0.009098 -0.195550 -0.502991
v -0.493894 -0.195550 0.000000
v -0.493894 -0.698541 0.502991
v -0.493894 0.307441 0.502991
v 0.009098 -0.698541 0.502991
v 0.009098 0.307441 0.502991
v -0.493894 -0.195550 0.502991
v -0.493894 -0.698541 0.000000
v -0.493894 0.307441 -0.000000
v 0.009098 0.307441 -0.000000
v 0.009098 -0.698541 0.000000
v -0.493894 -0.195550 0.000000
v 0.009098 -0.195550 0.502991
v 0.512089 -0.698541 0.502991
v 0.512089 0.307441 0.502991
v 0.512089 -0.698541 0.000000
v 0.512089 0.307441 -0.000000
v 0.512089 -0.195550 0.502991
v 0.009098 -0.698541 0.502991
v 0.009098 0.307441 0.502991
v 0.009098 0.307441 -0.000000
v 0.009098 -0.698541 0.000000
v 0.009098 -0.195550 0.502991
v 0.512089 -0.195550 -0.000000
vt 0.0000 0.6000
vt 0.0000 0.4000
vt 0.2000 0.4000
vt 0.2000 0.6000
vt 1.0000 0.0000
vt 1.0000 0.2000
vt 0.8000 0.2000
vt 0.8000 0.0000
vt 0.4000 1.0000
vt 0.4000 0.8000
vt 0.6000 0.8000
vt 0.6000 1.0000
vt 0.8000 0.0000
vt 0.8000 0.2000
vt 0.6000 0.2000
vt 0.6000 0.0000
vt 0.8000 0.4000
vt 0.6000 0.4000
vt 0.0000 0.8000
vt 0.2000 0.8000
vt 0.2000 0.6000
vt 0.2000 0.4000
vt 0.4000 0.4000
vt 0.4000 0.6000
vt 0.8000 0.6000
vt 0.8000 0.4000
vt 1.0000 0.4000
vt 1.0000 0.6000
vt 1.0000 0.4000
vt 0.8000 0.4000
vt 0.8000 0.2000
vt 1.0000 0.2000
vt 0.2000 0.4000
vt 0.2000 0.2000
vt 0.4000 0.2000
vt 0.4000 0.4000
vt 0.2000 0.0000
vt 0.4000 0.0000
vt 0.2000 0.8000
vt 0.4000 0.8000
vt 0.4000 0.6000
vt 0.4000 0.4000
vt 0.6000 0.4000
vt 0.6000 0.6000
vt 0.2000 0.8000
vt 0.4000 0.8000
vt 0.4000 1.0000
vt 0.2000 1.0000
vt 0.6000 0.8000
vt 0.8000 0.8000
vt 0.8000 1.0000
vt 0.6000 1.0000
vt 0.4000 0.4000
vt 0.4000 0.2000
vt 0.6000 0.2000
vt 0.6000 0.4000
vt 0.4000 0.0000
vt 0.6000 0.0000
vt 0.4000 0.8000
vt 0.6000 0.8000
vt 0.2000 0.2000
vt 0.2000 0.4000
vt 0.0000 0.4000
vt 0.0000 0.2000
vt 0.8000 0.6000
vt 1.0000 0.6000
vt 1.0000 0.8000
vt 0.8000 0.8000
vt 0.0000 0.8000
vt 0.2000 0.8000
vt 0.2000 1.0000
vt 0.0000 1.0000
vt 0.6000 0.8000
vt 0.6000 0.6000
vt 0.8000 0.6000
vt 0.8000 0.8000
vt 0.6000 0.4000
vt 0.8000 0.4000
vt 0.2000 0.0000
vt 0.0000 0.0000
vn 0.0000 -0.0000 -1.0000
vn 0.0000 1.0000 -0.0000
vn 0.0000 -1.0000 0.0000
vn 1.0000 -0.0000 0.0000
vn -1.0000 -0.0000 0.0000
vn 0.0000 0.0000 1.0000
usemtl stone.001
s 1
f 11/1/1 4/2/1 2/3/1 5/4/1
f 2/5/2 4/6/2 8/7/2 7/8/2
f 3/9/3 1/10/3 6/11/3 9/12/3
f 1/13/4 5/14/4 10/15/4 6/16/4
f 5/14/4 2/17/4 7/18/4 10/15/4
f 3/19/1 11/1/1 5/4/1 1/20/1
f 22/21/5 15/22/5 13/23/5 16/24/5
f 13/25/2 15/26/2 19/27/2 18/28/2
f 14/29/3 12/30/3 17/31/3 20/32/3
f 12/33/1 16/34/1 21/35/1 17/36/1
f 16/34/1 13/37/1 18/38/1 21/35/1
f 14/39/5 22/21/5 16/24/5 12/40/5
f 33/41/6 26/42/6 24/43/6 27/44/6
f 24/45/2 26/46/2 30/47/2 29/48/2
f 25/49/3 23/50/3 28/51/3 31/52/3
f 23/53/5 27/54/5 32/55/5 28/56/5
f 27/54/5 24/57/5 29/58/5 32/55/5
f 25/59/6 33/41/6 27/44/6 23/60/6
f 44/61/4 37/62/4 35/63/4 38/64/4
f 35/65/2 37/66/2 41/67/2 40/68/2
f 36/69/3 34/70/3 39/71/3 42/72/3
f 34/73/6 38/74/6 43/75/6 39/76/6
f 38/74/6 35/77/6 40/78/6 43/75/6
f 36/79/4 44/61/4 38/64/4 34/80/4
