# Blender v2.78 (sub 0) OBJ File: ''
# www.blender.org
mtllib fire.mtl
o Box003.001_Untitled.009
v 0.068959 0.154162 0.035743
v 0.018674 0.364788 0.068496
v 0.018674 0.364787 0.074414
v 0.036498 0.154162 0.083957
v -0.024675 0.233161 0.024628
v 0.085923 0.124827 0.041522
v -0.024675 0.233160 0.076762
v 0.021504 0.124827 0.076762
v 0.013051 -0.074763 0.022575
v 0.031383 -0.182566 0.023512
v 0.031383 -0.182566 0.026143
v 0.013051 -0.074763 0.052482
v 0.110185 -0.081418 0.032193
v -0.018245 -0.032489 0.024381
v 0.077723 -0.081418 0.047661
v -0.018245 -0.032489 0.060479
v 0.092659 0.001685 0.029674
v -0.010292 0.081355 0.023034
v -0.010292 0.081355 0.075966
v 0.060197 0.001685 0.061539
vt 0.0000 0.0000
vt 3.7651 0.0000
vt 3.7651 0.0000
vt 0.0000 0.0000
vt 3.7651 23.7845
vt 3.7651 23.7845
vt 0.0000 23.7845
vt 0.0000 23.7845
vt 0.0000 0.0000
vt 0.0000 23.7845
vt 3.7651 0.0000
vt 3.7651 23.7845
vt 1.0000 0.0000
vt 1.0000 5.9232
vt -2.7651 5.9232
vt -2.7651 0.0000
vt 0.0000 0.0000
vt 3.7651 0.0000
vt 3.7651 5.9232
vt 0.0000 5.9232
vt 0.0000 0.0000
vt 5.9232 0.0000
vt 5.9232 23.7845
vt 0.0000 23.7845
vt 0.0000 0.0000
vt 5.9232 0.0000
vt 5.9232 23.7845
vt 0.0000 23.7845
vt 0.0000 0.0000
vt 3.7651 0.0000
vt 3.7651 23.7845
vt 0.0000 23.7845
vt 3.7651 0.0000
vt 0.0000 0.0000
vt 3.7651 23.7845
vt 0.0000 23.7845
vn 0.1619 0.0606 -0.9849
vn -0.9955 -0.0943 -0.0000
vn 0.0431 -0.0498 0.9978
vn 0.5693 0.0147 0.8220
vn 0.6527 0.0036 0.7576
vn 0.8524 0.1097 0.5112
vn 0.2649 0.1807 -0.9472
vn -0.9498 0.3128 0.0000
vn -0.1060 0.0085 0.9943
vn 0.0529 -0.0170 -0.9985
vn 0.0498 -0.1449 0.9882
vn 0.5877 0.0689 0.8061
vn -0.9976 0.0697 0.0000
vn -0.9858 -0.1676 0.0000
vn 0.1011 0.0392 -0.9941
vn 0.4471 -0.3963 0.8019
vn 0.0516 -0.2065 0.9771
vn -0.8037 -0.5950 -0.0000
usemtl 05_-_Default.001
s 1
f 17/1/1 18/2/1 5/3/1 6/4/1
f 18/2/2 19/5/2 7/6/2 5/3/2
f 19/5/3 20/7/3 8/8/3 7/6/3
f 20/7/4 17/1/4 6/4/4 8/8/4
f 8/8/5 6/4/5 1/9/5 4/10/5
usemtl 07_-_Default.001
f 1/9/6 2/11/6 3/12/6 4/10/6
f 5/3/7 2/11/7 1/9/7 6/4/7
f 5/3/8 7/6/8 3/12/8 2/11/8
f 7/6/9 8/8/9 4/10/9 3/12/9
usemtl 02_-_Default.001
f 14/13/10 18/14/10 17/15/10 13/16/10
f 16/17/11 15/18/11 20/19/11 19/20/11
f 13/21/12 17/22/12 20/23/12 15/24/12
f 18/25/13 14/26/13 16/27/13 19/28/13
usemtl 03_-_Default.001
f 9/29/14 10/30/14 11/31/14 12/32/14
f 13/33/15 10/30/15 9/29/15 14/34/15
f 13/33/16 15/35/16 11/31/16 10/30/16
f 15/35/17 16/36/17 12/32/17 11/31/17
f 16/36/18 14/34/18 9/29/18 12/32/18
o Box004.001_Untitled.015
v -0.096819 -0.061978 0.012412
v -0.072581 -0.061514 -0.028981
v -0.091122 0.053962 -0.028310
v -0.114640 0.053511 0.011854
v -0.091960 -0.025566 -0.047780
v -0.091673 0.056723 -0.028598
v -0.115190 0.056272 0.011563
v -0.123364 -0.026168 0.005852
v -0.109987 0.168658 0.000533
v -0.096125 0.168924 -0.023140
v -0.123682 0.220912 -0.022634
v -0.125574 0.220876 -0.019404
v -0.132191 0.160139 0.002773
v -0.114261 0.150517 0.013164
v -0.097615 0.150836 -0.015265
v -0.111117 0.160543 -0.033218
v -0.138754 -0.064197 -0.019878
v -0.153436 0.040460 -0.011009
v -0.126396 -0.063960 -0.040984
v -0.126645 0.040973 -0.056762
v -0.134039 -0.079140 -0.024293
v -0.022359 -0.163920 0.033243
v -0.119495 -0.078861 -0.049131
v -0.016194 -0.163802 0.022715
vt 1.4895 0.0000
vt 0.0000 0.0000
vt 0.0000 0.0000
vt 1.4895 0.0000
vt 0.0000 -2.4470
vt 1.4895 -2.4470
vt 1.4895 -2.4470
vt 0.0000 -2.4470
vt 0.0000 -2.4470
vt 0.0000 0.0000
vt 0.0000 0.0000
vt 0.0000 -2.4470
vt 0.0000 0.0000
vt 1.4895 0.0000
vt 0.0000 -2.4470
vt 1.4895 -2.4470
vt 0.0000 -2.4470
vt 0.0000 0.0000
vt 1.4895 -2.4470
vt 1.4895 0.0000
vt 1.0000 0.0000
vt -0.4895 0.0000
vt -0.4895 3.7502
vt 1.0000 3.7502
vt 0.0000 0.0000
vt 0.0000 3.7502
vt 1.4895 3.7502
vt 1.4895 0.0000
vt 0.0000 0.0000
vt 0.0000 -2.4470
vt 1.4895 -2.4470
vt 1.4895 0.0000
vt 0.0000 0.0000
vt 0.0000 -2.4470
vt 3.7502 -2.4470
vt 3.7502 0.0000
vt 0.0000 0.0000
vt 0.0000 -2.4470
vt 3.7502 -2.4470
vt 3.7502 0.0000
vn -0.6200 -0.0824 0.7803
vn 0.2818 0.0174 -0.9593
vn -0.8599 -0.0779 -0.5044
vn -0.6939 -0.5900 -0.4129
vn 0.8408 0.2195 0.4948
vn -0.5053 -0.0097 0.8629
vn 0.8629 -0.0171 0.5051
vn 0.6799 0.0950 -0.7271
vn -0.8453 0.2068 -0.4926
vn 0.8527 0.1479 0.5010
vn 0.7845 0.4113 0.4640
vn -0.0657 0.4104 0.9095
vn 0.5150 0.1021 -0.8511
vn -0.8590 -0.0904 -0.5040
vn 0.8545 0.1343 0.5018
vn 0.8075 0.1322 -0.5749
vn -0.2972 -0.0393 0.9540
vn -0.5977 -0.3021 0.7426
vn 0.3734 -0.1698 -0.9120
vn -0.4794 -0.8283 -0.2900
vn 0.6935 0.5906 0.4127
vn -0.8559 -0.1216 -0.5026
usemtl 05_-_Default.001
s 1
f 37/37/19 28/38/19 27/39/19 38/40/19
f 25/41/20 39/42/20 40/43/20 26/44/20
f 39/42/21 37/37/21 38/40/21 40/43/21
f 28/38/22 25/41/22 22/45/22 21/46/22
f 26/44/23 27/39/23 24/47/23 23/48/23
f 38/40/24 27/39/24 34/49/24 33/50/24
f 27/39/25 26/44/25 35/51/25 34/49/25
f 26/44/26 40/43/26 36/52/26 35/51/26
f 40/43/27 38/40/27 33/50/27 36/52/27
f 34/49/28 35/51/28 30/53/28 29/54/28
usemtl 07_-_Default.001
f 29/54/29 30/53/29 31/55/29 32/56/29
f 33/50/30 34/49/30 29/54/30 32/56/30
f 35/51/31 36/52/31 31/55/31 30/53/31
f 36/52/32 33/50/32 32/56/32 31/55/32
usemtl 02_-_Default.001
f 21/46/33 22/45/33 23/48/33 24/47/33
f 25/41/34 26/44/34 23/48/34 22/45/34
f 27/39/35 28/38/35 21/46/35 24/47/35
usemtl 03_-_Default.001
f 41/57/36 42/58/36 28/59/36 37/60/36
f 43/61/37 39/62/37 25/63/37 44/64/37
f 41/65/38 43/66/38 44/67/38 42/68/38
f 42/69/39 44/70/39 25/71/39 28/72/39
f 37/73/40 39/74/40 43/75/40 41/76/40
o Box006.001_Untitled.013
v 0.144576 -0.014474 0.136884
v 0.066775 -0.087460 0.106573
v 0.087009 -0.029512 0.099858
v 0.130424 0.050920 0.128408
v 0.136122 -0.017290 0.160842
v 0.112985 0.045111 0.177829
v 0.078962 -0.032193 0.122664
v 0.063027 -0.088708 0.117196
v 0.109609 -0.103364 0.116591
v 0.107858 -0.103947 0.121553
v 0.075501 -0.126072 0.112287
v 0.078057 -0.125221 0.105041
v 0.106894 0.070754 0.164266
v 0.119764 0.141899 0.184200
v 0.127275 0.096816 0.144473
v 0.124611 0.076656 0.114059
vt 0.0000 -5.9578
vt 2.9257 -5.9578
vt 2.9257 0.0000
vt 0.0000 0.0000
vt 2.9257 0.0000
vt 0.0000 0.0000
vt 0.0000 -5.9578
vt 2.9257 -5.9578
vt 1.0000 0.0000
vt -1.9257 0.0000
vt -1.9257 4.2024
vt 1.0000 4.2024
vt 0.0000 0.0000
vt 0.0000 4.2024
vt 2.9257 4.2024
vt 2.9257 0.0000
vt 0.0000 0.0000
vt 0.0000 -5.9578
vt 4.2024 -5.9578
vt 4.2024 0.0000
vt 0.0000 0.0000
vt 0.0000 -5.9578
vt 4.2024 -5.9578
vt 4.2024 0.0000
vt 0.0000 0.0000
vt 0.0000 -5.9578
vt 2.9257 -5.9578
vt 2.9257 0.0000
vt 2.9257 0.0000
vt 0.0000 0.0000
vt 0.0000 -5.9578
vt 2.9257 -5.9578
vn -0.8450 0.3612 -0.3944
vn 0.8546 -0.0919 -0.5111
vn -0.8944 0.3534 -0.2741
vn -0.8811 0.0399 0.4712
vn 0.9520 -0.0710 0.2977
vn 0.5600 -0.1284 -0.8185
vn -0.5108 -0.1893 0.8386
vn -0.9138 0.2856 -0.2888
vn 0.9059 0.2412 0.3480
vn 0.5435 -0.8341 0.0938
vn 0.2665 0.1151 -0.9569
vn 0.8763 -0.4045 0.2617
vn -0.1949 -0.3071 0.9315
vn -0.9020 -0.2554 -0.3482
usemtl 05_-_Default.001
s 1
f 57/77/41 58/78/41 59/79/41 60/80/41
f 48/81/42 47/82/42 60/80/42 59/79/42
f 47/82/43 51/83/43 57/77/43 60/80/43
f 50/84/44 58/78/44 57/77/44 51/83/44
f 50/84/45 48/81/45 59/79/45 58/78/45
usemtl 02_-_Default.001
f 45/85/46 46/86/46 47/87/46 48/88/46
f 49/89/47 50/90/47 51/91/47 52/92/47
f 46/93/48 52/94/48 51/95/48 47/96/48
f 48/97/49 50/98/49 49/99/49 45/100/49
usemtl 03_-_Default.001
f 53/101/50 54/102/50 55/103/50 56/104/50
f 46/105/51 45/106/51 53/101/51 56/104/51
f 45/106/52 49/107/52 54/102/52 53/101/52
f 52/108/53 55/103/53 54/102/53 49/107/53
f 52/108/54 46/105/54 56/104/54 55/103/54
o Box008.001_Untitled.014
v 0.001141 0.060079 -0.038821
v 0.024385 -0.002238 -0.032926
v 0.035482 0.057434 -0.038570
v -0.001921 0.162833 -0.048540
v 0.001141 0.058616 -0.054290
v 0.005503 0.119375 -0.060037
v 0.037871 0.055918 -0.054035
v 0.024374 -0.003754 -0.048390
v 0.014178 0.218024 -0.053782
v 0.018949 0.216507 -0.069246
v 0.022429 0.127935 -0.060867
v 0.012623 0.171393 -0.049371
vt 1.0000 0.0000
vt 0.4149 0.0000
vt 0.4149 1.2900
vt 1.0000 1.2900
vt 0.0000 0.0000
vt 0.0000 1.2900
vt 0.5851 1.2900
vt 0.5851 0.0000
vt 0.0000 0.0000
vt 0.0000 -0.6117
vt 0.5851 -0.6117
vt 0.5851 0.0000
vt 0.0000 0.0000
vt 0.0000 -0.6117
vt 1.2900 -0.6117
vt 1.2900 0.0000
vt 0.0000 0.0000
vt 0.0000 -0.6117
vt 0.5851 -0.6117
vt 0.5851 0.0000
vt 0.0000 0.0000
vt 0.0000 -0.6117
vt 1.2900 -0.6117
vt 1.2900 0.0000
vt 0.0000 0.0000
vt 0.5851 0.0000
vt 0.0000 -0.6117
vt 0.5851 -0.6117
vn -0.0000 0.0942 0.9956
vn 0.0003 0.0944 0.9955
vn -0.0000 -0.0942 -0.9956
vn 0.0001 -0.0943 -0.9955
vn -0.9375 -0.3463 0.0337
vn 0.9768 -0.1924 0.0940
vn -0.9119 -0.0515 -0.4071
vn -0.9702 -0.0152 -0.2418
vn 0.0004 0.0944 0.9955
vn 0.9674 0.1411 0.2101
vn 0.0002 -0.0944 -0.9955
vn -0.1705 0.2203 -0.9604
usemtl 07_-_Default.001
s 1
f 61/109/55 62/110/55 63/111/55 64/112/56
f 65/113/57 66/114/58 67/115/57 68/116/57
f 61/117/59 65/118/59 68/119/59 62/120/59
f 62/121/60 68/122/60 67/123/60 63/124/60
f 69/125/61 70/126/61 71/127/61 72/128/61
f 64/129/62 66/130/62 65/131/62 61/132/62
f 63/133/55 69/125/63 72/128/63 64/134/56
f 63/133/64 67/135/64 70/126/64 69/125/64
f 67/135/57 66/136/58 71/127/65 70/126/65
f 66/136/66 64/134/66 72/128/66 71/127/66
o Box010.001_Untitled.012
v -0.089631 0.163243 0.056481
v -0.067263 0.090071 0.077448
v -0.091360 0.156434 0.090208
v -0.127075 0.280369 0.058070
v -0.081390 0.165978 0.047658
v -0.096717 0.235803 0.059322
v -0.073215 0.160571 0.090142
v -0.064601 0.091786 0.065052
v -0.117791 0.346600 0.095972
v -0.110079 0.348716 0.091738
v -0.095543 0.244630 0.079959
v -0.126384 0.289344 0.075931
vt 1.0000 0.0000
vt 0.4149 0.0000
vt 0.4149 1.2900
vt 1.0000 1.2900
vt 0.0000 0.0000
vt 0.0000 1.2900
vt 0.5851 1.2900
vt 0.5851 0.0000
vt 0.0000 0.0000
vt 0.0000 -0.6117
vt 0.5851 -0.6117
vt 0.5851 0.0000
vt 0.0000 0.0000
vt 0.0000 -0.6117
vt 1.2900 -0.6117
vt 1.2900 0.0000
vt 0.0000 0.0000
vt 0.0000 -0.6117
vt 0.5851 -0.6117
vt 0.5851 0.0000
vt 0.0000 0.0000
vt 0.0000 -0.6117
vt 1.2900 -0.6117
vt 1.2900 0.0000
vt 0.0000 0.0000
vt 0.5851 0.0000
vt 0.0000 -0.6117
vt 0.5851 -0.6117
vn -0.9448 -0.3082 -0.1107
vn 0.9649 0.2088 -0.1591
vn -0.8054 -0.3403 -0.4852
vn 0.5327 -0.1062 0.8396
vn 0.2121 0.1966 -0.9573
vn -0.1694 0.0220 -0.9853
vn -0.8474 -0.1692 0.5033
vn 0.1622 0.0079 0.9867
vn 0.9208 0.2043 -0.3322
vn 0.7986 0.5306 -0.2841
usemtl 07_-_Default.001
s 1
f 73/137/67 74/138/67 75/139/67 76/140/67
f 77/141/68 78/142/68 79/143/68 80/144/68
f 73/145/69 77/146/69 80/147/69 74/148/69
f 74/149/70 80/150/70 79/151/70 75/152/70
f 81/153/71 82/154/71 83/155/71 84/156/71
f 76/157/72 78/158/72 77/159/72 73/160/72
f 75/161/73 81/153/73 84/156/73 76/162/73
f 75/161/74 79/163/74 82/154/74 81/153/74
f 79/163/75 78/164/75 83/155/75 82/154/75
f 78/164/76 76/162/76 84/156/76 83/155/76
o Box007.001_Untitled.016
v 0.127172 -0.069442 0.009706
v 0.130072 -0.069178 0.057587
v 0.124068 0.047268 0.048463
v 0.121255 0.047012 0.002003
v 0.149753 -0.029116 0.062964
v 0.124180 0.050096 0.048437
v 0.121366 0.049840 0.001981
v 0.145996 -0.029458 0.000926
v 0.102982 0.160528 0.015744
v 0.104640 0.160679 0.043128
v 0.117495 0.216115 0.028162
v 0.117269 0.216095 0.024424
v 0.121395 0.155454 0.001398
v 0.102786 0.142252 0.002598
v 0.104777 0.142433 0.035482
v 0.123916 0.155683 0.043030
v 0.179532 -0.062180 0.013160
v 0.167818 0.042296 -0.000791
v 0.181010 -0.062046 0.037574
v 0.171023 0.042588 0.052134
v 0.180799 -0.077234 0.019225
v 0.073307 -0.183278 0.032290
v 0.182539 -0.077076 0.047956
v 0.074044 -0.183211 0.044468
vt 1.4895 0.0000
vt 0.0000 0.0000
vt 0.0000 0.0000
vt 1.4895 0.0000
vt 0.0000 -2.4470
vt 1.4895 -2.4470
vt 1.4895 -2.4470
vt 0.0000 -2.4470
vt 0.0000 -2.4470
vt 0.0000 0.0000
vt 0.0000 0.0000
vt 0.0000 -2.4470
vt 0.0000 0.0000
vt 1.4895 0.0000
vt 0.0000 -2.4470
vt 1.4895 -2.4470
vt 0.0000 -2.4470
vt 0.0000 0.0000
vt 1.4895 -2.4470
vt 1.4895 0.0000
vt 1.0000 0.0000
vt -0.4895 0.0000
vt -0.4895 3.7502
vt 1.0000 3.7502
vt 0.0000 0.0000
vt 0.0000 3.7502
vt 1.4895 3.7502
vt 1.4895 0.0000
vt 0.0000 0.0000
vt 0.0000 -2.4470
vt 1.4895 -2.4470
vt 1.4895 0.0000
vt 0.0000 0.0000
vt 0.0000 -2.4470
vt 3.7502 -2.4470
vt 3.7502 0.0000
vt 0.0000 0.0000
vt 0.0000 -2.4470
vt 3.7502 -2.4470
vt 3.7502 0.0000
vn 0.0916 -0.0517 -0.9945
vn 0.2944 0.0568 0.9540
vn 0.9928 0.1032 -0.0607
vn 0.8991 -0.4347 -0.0521
vn -0.9974 0.0398 0.0602
vn -0.0605 -0.0055 -0.9982
vn -0.9785 -0.1971 0.0603
vn -0.1720 0.0500 0.9838
vn 0.9232 0.3799 -0.0580
vn -0.9976 -0.0329 0.0606
vn -0.9690 0.2402 0.0573
vn -0.5202 0.3343 -0.7859
vn 0.0294 0.0938 0.9952
vn 0.9940 0.0907 -0.0607
vn -0.9971 -0.0467 0.0606
vn -0.3664 0.0532 0.9290
vn -0.2749 -0.0755 -0.9585
vn 0.1337 -0.2680 -0.9541
vn 0.2273 -0.1459 0.9628
vn 0.6994 -0.7137 -0.0384
vn -0.8988 0.4353 0.0520
vn 0.9964 0.0594 -0.0607
usemtl 05_-_Default.001
s 1
f 101/165/77 92/166/77 91/167/77 102/168/77
f 89/169/78 103/170/78 104/171/78 90/172/78
f 103/170/79 101/165/79 102/168/79 104/171/79
f 92/166/80 89/169/80 86/173/80 85/174/80
f 90/172/81 91/167/81 88/175/81 87/176/81
f 102/168/82 91/167/82 98/177/82 97/178/82
f 91/167/83 90/172/83 99/179/83 98/177/83
f 90/172/84 104/171/84 100/180/84 99/179/84
f 104/171/85 102/168/85 97/178/85 100/180/85
f 98/177/86 99/179/86 94/181/86 93/182/86
usemtl 07_-_Default.001
f 93/182/87 94/181/87 95/183/87 96/184/87
f 97/178/88 98/177/88 93/182/88 96/184/88
f 99/179/89 100/180/89 95/183/89 94/181/89
f 100/180/90 97/178/90 96/184/90 95/183/90
usemtl 02_-_Default.001
f 85/174/91 86/173/91 87/176/91 88/175/91
f 89/169/92 90/172/92 87/176/92 86/173/92
f 91/167/93 92/166/93 85/174/93 88/175/93
usemtl 03_-_Default.001
f 105/185/94 106/186/94 92/187/94 101/188/94
f 107/189/95 103/190/95 89/191/95 108/192/95
f 105/193/96 107/194/96 108/195/96 106/196/96
f 106/197/97 108/198/97 89/199/97 92/200/97
f 101/201/98 103/202/98 107/203/98 105/204/98
o Box001.001_Untitled.010
v -0.082969 -0.089291 0.123024
v 0.002873 -0.153474 0.094555
v 0.017093 -0.098769 0.122556
v -0.080093 -0.030767 0.159361
v -0.082969 -0.080742 0.098934
v -0.080093 -0.013132 0.109669
v 0.017093 -0.090631 0.099625
v 0.002873 -0.149683 0.083874
v -0.040283 -0.171251 0.091456
v -0.040283 -0.169480 0.086466
v -0.005977 -0.187434 0.075368
v -0.005977 -0.190019 0.082653
v -0.059533 0.004919 0.125966
v -0.072932 0.076085 0.141331
v -0.072932 0.016859 0.160087
v -0.059533 -0.012997 0.176448
vt 0.0000 -5.9578
vt 2.9257 -5.9578
vt 2.9257 0.0000
vt 0.0000 0.0000
vt 2.9257 0.0000
vt 0.0000 0.0000
vt 0.0000 -5.9578
vt 2.9257 -5.9578
vt 1.0000 0.0000
vt -1.9257 0.0000
vt -1.9257 4.2024
vt 1.0000 4.2024
vt 0.0000 0.0000
vt 0.0000 4.2024
vt 2.9257 4.2024
vt 2.9257 0.0000
vt 0.0000 0.0000
vt 0.0000 -5.9578
vt 4.2024 -5.9578
vt 4.2024 0.0000
vt 0.0000 0.0000
vt 0.0000 -5.9578
vt 4.2024 -5.9578
vt 4.2024 0.0000
vt 0.0000 0.0000
vt 0.0000 -5.9578
vt 2.9257 -5.9578
vt 2.9257 0.0000
vt 2.9257 0.0000
vt 0.0000 0.0000
vt 0.0000 -5.9578
vt 2.9257 -5.9578
vn 0.9280 0.2489 0.2773
vn -0.2737 -0.4831 0.8317
vn 0.7904 0.5773 0.2049
vn 0.3330 0.3941 -0.8566
vn -0.9924 0.0821 0.0921
vn -0.0422 -0.4888 0.8714
vn 0.0266 0.2012 -0.9792
vn 0.9741 -0.2129 -0.0756
vn 0.9741 -0.2130 -0.0756
vn 0.9738 -0.2142 -0.0760
vn -0.9991 0.0402 0.0143
vn -0.5154 -0.8076 -0.2866
vn 0.0669 -0.3267 0.9428
vn -0.8993 -0.4121 -0.1462
vn -0.1193 0.1313 -0.9841
vn 0.9745 -0.2115 -0.0751
usemtl 05_-_Default.001
s 1
f 121/205/99 122/206/99 123/207/99 124/208/99
f 112/209/100 111/210/100 124/208/100 123/207/100
f 111/210/101 115/211/101 121/205/101 124/208/101
f 114/212/102 122/206/102 121/205/102 115/211/102
f 114/212/103 112/209/103 123/207/103 122/206/103
usemtl 02_-_Default.001
f 109/213/104 110/214/104 111/215/104 112/216/104
f 113/217/105 114/218/105 115/219/105 116/220/105
f 110/221/106 116/222/107 115/223/108 111/224/108
f 112/225/109 114/226/109 113/227/109 109/228/109
usemtl 03_-_Default.001
f 117/229/110 118/230/110 119/231/110 120/232/110
f 110/233/111 109/234/111 117/229/111 120/232/111
f 109/234/112 113/235/112 118/230/112 117/229/112
f 116/236/113 119/231/113 118/230/113 113/235/113
f 116/236/107 110/233/106 120/232/114 119/231/114
o Box009.001_Untitled.011
v 0.035239 0.266468 0.094709
v 0.050535 0.201709 0.100263
v 0.057839 0.259049 0.119620
v 0.033224 0.368309 0.111639
v 0.046938 0.268370 0.084662
v 0.049809 0.327724 0.099239
v 0.071110 0.260564 0.111330
v 0.062228 0.203560 0.090199
v 0.053749 0.420529 0.133846
v 0.068588 0.421710 0.127318
v 0.060963 0.333807 0.113347
v 0.042810 0.374725 0.123985
vt 1.0000 0.0000
vt 0.4149 0.0000
vt 0.4149 1.2900
vt 1.0000 1.2900
vt 0.0000 0.0000
vt 0.0000 1.2900
vt 0.5851 1.2900
vt 0.5851 0.0000
vt 0.0000 0.0000
vt 0.0000 -0.6117
vt 0.5851 -0.6117
vt 0.5851 0.0000
vt 0.0000 0.0000
vt 0.0000 -0.6117
vt 1.2900 -0.6117
vt 1.2900 0.0000
vt 0.0000 0.0000
vt 0.0000 -0.6117
vt 0.5851 -0.6117
vt 0.5851 0.0000
vt 0.0000 0.0000
vt 0.0000 -0.6117
vt 1.2900 -0.6117
vt 1.2900 0.0000
vt 0.0000 0.0000
vt 0.5851 0.0000
vt 0.0000 -0.6117
vt 0.5851 -0.6117
vn -0.7529 -0.1224 0.6466
vn 0.7529 0.1224 -0.6466
vn -0.6176 -0.2107 -0.7577
vn 0.5860 -0.3429 0.7342
vn -0.2480 0.2033 -0.9472
vn -0.4561 0.1730 -0.8729
vn -0.5919 -0.1071 0.7988
vn 0.4705 -0.0727 0.8794
vn 0.6218 0.1075 -0.7757
vn 0.5921 0.4427 -0.6734
usemtl 07_-_Default.001
s 1
f 125/237/115 126/238/115 127/239/115 128/240/115
f 129/241/116 130/242/116 131/243/116 132/244/116
f 125/245/117 129/246/117 132/247/117 126/248/117
f 126/249/118 132/250/118 131/251/118 127/252/118
f 133/253/119 134/254/119 135/255/119 136/256/119
f 128/257/120 130/258/120 129/259/120 125/260/120
f 127/261/121 133/253/121 136/256/121 128/262/121
f 127/261/122 131/263/122 134/254/122 133/253/122
f 131/263/123 130/264/123 135/255/123 134/254/123
f 130/264/124 128/262/124 136/256/124 135/255/124
o Box005.001_Untitled.017
v 0.127461 -0.054515 -0.072626
v 0.047385 -0.116409 -0.027286
v 0.035226 -0.054749 -0.032687
v 0.123215 0.012288 -0.089149
v 0.138244 -0.053715 -0.049465
v 0.145460 0.013939 -0.041371
v 0.045492 -0.053987 -0.010639
v 0.052166 -0.116054 -0.017016
v 0.083926 -0.138052 -0.046890
v 0.086160 -0.137886 -0.042092
v 0.055629 -0.155235 -0.022362
v 0.052368 -0.155477 -0.029367
v 0.124455 0.037838 -0.042704
v 0.145377 0.108823 -0.044611
v 0.126218 0.058328 -0.075314
v 0.101856 0.036161 -0.091242
vt 0.0000 -5.9578
vt 2.9257 -5.9578
vt 2.9257 0.0000
vt 0.0000 0.0000
vt 2.9257 0.0000
vt 0.0000 0.0000
vt 0.0000 -5.9578
vt 2.9257 -5.9578
vt 1.0000 0.0000
vt -1.9257 0.0000
vt -1.9257 4.2024
vt 1.0000 4.2024
vt 0.0000 0.0000
vt 0.0000 4.2024
vt 2.9257 4.2024
vt 2.9257 0.0000
vt 0.0000 0.0000
vt 0.0000 -5.9578
vt 4.2024 -5.9578
vt 4.2024 0.0000
vt 0.0000 0.0000
vt 0.0000 -5.9578
vt 4.2024 -5.9578
vt 4.2024 0.0000
vt 0.0000 0.0000
vt 0.0000 -5.9578
vt 2.9257 -5.9578
vt 2.9257 0.0000
vt 2.9257 0.0000
vt 0.0000 0.0000
vt 0.0000 -5.9578
vt 2.9257 -5.9578
vn -0.8921 0.4028 0.2049
vn -0.1633 -0.2302 -0.9593
vn -0.6732 0.6802 0.2900
vn 0.1009 0.1436 0.9845
vn 0.8795 0.0175 -0.4756
vn -0.3887 -0.2030 -0.8987
vn 0.3843 -0.1039 0.9173
vn -0.8960 -0.1383 0.4219
vn -0.8958 -0.1397 0.4219
vn 0.9062 -0.0464 -0.4203
vn 0.4081 -0.8990 -0.1589
vn -0.4809 -0.0179 -0.8766
vn 0.7836 -0.5153 -0.3470
vn 0.5038 -0.1847 0.8438
vn -0.8962 -0.1368 0.4220
usemtl 05_-_Default.001
s 1
f 149/265/125 150/266/125 151/267/125 152/268/125
f 140/269/126 139/270/126 152/268/126 151/267/126
f 139/270/127 143/271/127 149/265/127 152/268/127
f 142/272/128 150/266/128 149/265/128 143/271/128
f 142/272/129 140/269/129 151/267/129 150/266/129
usemtl 02_-_Default.001
f 137/273/130 138/274/130 139/275/130 140/276/130
f 141/277/131 142/278/131 143/279/131 144/280/131
f 138/281/132 144/282/132 143/283/133 139/284/133
f 140/285/134 142/286/134 141/287/134 137/288/134
usemtl 03_-_Default.001
f 145/289/135 146/290/135 147/291/135 148/292/135
f 138/293/136 137/294/136 145/289/136 148/292/136
f 137/294/137 141/295/137 146/290/137 145/289/137
f 144/296/138 147/291/138 146/290/138 141/295/138
f 144/296/132 138/293/132 148/292/139 147/291/139
